<svg width="18" height="18" viewBox="0 0 18 18" fill="none" xmlns="http://www.w3.org/2000/svg">
<g id="book-user">
<path id="Icon" d="M3.75 14.25V4.65C3.75 3.80992 3.75 3.38988 3.91349 3.06901C4.0573 2.78677 4.28677 2.5573 4.56901 2.41349C4.88988 2.25 5.30992 2.25 6.15 2.25H11.85C12.6901 2.25 13.1101 2.25 13.431 2.41349C13.7132 2.5573 13.9427 2.78677 14.0865 3.06901C14.25 3.38988 14.25 3.80992 14.25 4.65V12.75H5.25C4.42157 12.75 3.75 13.4216 3.75 14.25ZM3.75 14.25C3.75 15.0784 4.42157 15.75 5.25 15.75H14.25M13.5 12.75V15.75M11.25 10.125C11.0373 9.26916 10.1108 8.625 9 8.625C7.88925 8.625 6.96273 9.26916 6.75 10.125M9 5.625H9.0075M9.75 5.625C9.75 6.03921 9.41421 6.375 9 6.375C8.58579 6.375 8.25 6.03921 8.25 5.625C8.25 5.21079 8.58579 4.875 9 4.875C9.41421 4.875 9.75 5.21079 9.75 5.625Z" stroke="white" stroke-width="1.5" stroke-linecap="round" stroke-linejoin="round"/>
</g>
</svg>
