<svg width="18" height="18" viewBox="0 0 18 18" fill="none" xmlns="http://www.w3.org/2000/svg">
<path d="M11.1343 5.86569L5.3804 11.6196C4.95203 12.048 4.73784 12.2622 4.72336 12.4461C4.71081 12.6056 4.77539 12.7615 4.8971 12.8655C5.03736 12.9853 5.34027 12.9853 5.94609 12.9853L11.7 12.9853C11.98 12.9853 12.12 12.9853 12.227 12.9308C12.3211 12.8829 12.3976 12.8064 12.4455 12.7123C12.5 12.6053 12.5 12.4653 12.5 12.1853L12.5 6.43137C12.5 5.82556 12.5 5.52265 12.3802 5.38238C12.2763 5.26068 12.1203 5.19609 11.9608 5.20865C11.7769 5.22312 11.5627 5.43731 11.1343 5.86569Z" fill="black" fill-opacity="0.54"/>
</svg>
