<svg width="21" height="20" viewBox="0 0 21 20" fill="none" xmlns="http://www.w3.org/2000/svg">
<g id="file-plus-alt">
<path id="Icon" d="M14.5 15.8333H17.8333M16.1667 14.1667V17.5M11.1667 2.5H7.16667C6.23325 2.5 5.76654 2.5 5.41002 2.68166C5.09641 2.84144 4.84144 3.09641 4.68166 3.41002C4.5 3.76654 4.5 4.23325 4.5 5.16667V14.8333C4.5 15.7668 4.5 16.2335 4.68166 16.59C4.84144 16.9036 5.09641 17.1586 5.41002 17.3183C5.76654 17.5 6.23325 17.5 7.16667 17.5H10.3333M11.1667 2.5L16.1667 7.5M11.1667 2.5V6.16667C11.1667 6.63338 11.1667 6.86673 11.2575 7.04499C11.3374 7.20179 11.4649 7.32928 11.6217 7.40917C11.7999 7.5 12.0333 7.5 12.5 7.5H16.1667M16.1667 7.5V10M7.83333 14.1667H10.3333M7.83333 10.8333H12.8333M7.83333 7.5H8.66667" stroke="white" stroke-width="1.5" stroke-linecap="round" stroke-linejoin="round"/>
</g>
</svg>
