<svg width="24" height="24" viewBox="0 0 24 24" fill="none" xmlns="http://www.w3.org/2000/svg">
<g id="receipt-alt-3">
<path id="Icon" d="M17 12.9996H21V18.9996C21 20.1042 20.1046 20.9996 19 20.9996M17 12.9996V18.9996C17 20.1042 17.8954 20.9996 19 20.9996M17 12.9996V5.7567C17 4.85131 17 4.39861 16.8098 4.13609C16.6439 3.90709 16.3888 3.75904 16.1076 3.7286C15.7853 3.69371 15.3923 3.91831 14.6062 4.36751L14.2938 4.546C14.0045 4.71134 13.8598 4.79401 13.7062 4.82638C13.5702 4.85503 13.4298 4.85503 13.2938 4.82638C13.1402 4.79401 12.9955 4.71134 12.7062 4.546L10.7938 3.45323C10.5045 3.28789 10.3598 3.20522 10.2062 3.17285C10.0702 3.14421 9.92978 3.14421 9.79383 3.17285C9.64019 3.20522 9.49552 3.28789 9.20618 3.45323L7.29382 4.546C7.00448 4.71134 6.85981 4.79401 6.70617 4.82638C6.57022 4.85503 6.42978 4.85503 6.29383 4.82638C6.14019 4.79401 5.99552 4.71134 5.70618 4.546L5.39382 4.36751C4.60772 3.91831 4.21467 3.69371 3.89237 3.7286C3.61123 3.75904 3.35611 3.90709 3.1902 4.13609C3 4.39861 3 4.85131 3 5.7567V16.1996C3 17.8798 3 18.7199 3.32698 19.3616C3.6146 19.9261 4.07354 20.385 4.63803 20.6726C5.27976 20.9996 6.11984 20.9996 7.8 20.9996H19M12 10.4996C11.5 10.3756 10.6851 10.3711 10 10.3756C9.77091 10.3772 9.90941 10.3674 9.6 10.3756C8.79258 10.4008 8.00165 10.7364 8 11.6871C7.99825 12.7 9 12.9996 10 12.9996C11 12.9996 12 13.2308 12 14.3121C12 15.1247 11.1925 15.4808 10.1861 15.5987C9.3861 15.5987 9 15.6246 8 15.4996M10 15.9996V16.9996M10 8.99962V9.99962" stroke="black" stroke-opacity="0.87" stroke-width="1.5" stroke-linecap="round" stroke-linejoin="round"/>
</g>
</svg>
