<svg width="24" height="24" viewBox="0 0 24 24" fill="none" xmlns="http://www.w3.org/2000/svg">
<path d="M4.00004 20.9999H12V7.99991M12 7.99991C10.8955 7.99991 10 7.10448 10 5.99991C10 5.75996 10.0423 5.52988 10.1198 5.3167M12 7.99991C13.1046 7.99991 14 7.10448 14 5.99991C14 4.89534 13.1046 3.99991 12 3.99991C11.1354 3.99991 10.3989 4.54856 10.1198 5.3167M13.876 6.68387L19.5142 8.73599M4.47912 3.26367L10.1198 5.3167M18 20.9999C16.4875 20.9999 15.2364 20.1583 15.0299 18.7512C15.0168 18.662 15.0103 18.6174 15.0154 18.5185C15.019 18.4502 15.0421 18.3255 15.0633 18.2604C15.094 18.1663 15.1311 18.1002 15.2055 17.9679L18 12.9999L20.7946 17.9679C20.8635 18.0905 20.898 18.1518 20.9299 18.2583C20.9495 18.3238 20.9722 18.481 20.9719 18.5494C20.9715 18.6605 20.9647 18.6898 20.9513 18.7485C20.6963 19.8599 19.472 20.9999 18 20.9999ZM6.00004 16.9999C4.4875 16.9999 3.2364 16.1583 3.02993 14.7512C3.01684 14.662 3.0103 14.6174 3.01542 14.5185C3.01895 14.4502 3.04209 14.3255 3.06327 14.2604C3.09395 14.1663 3.13114 14.1002 3.20552 13.9679L6.00004 8.99991L8.79456 13.9679C8.86351 14.0905 8.89799 14.1518 8.92988 14.2583C8.9495 14.3238 8.9722 14.481 8.97192 14.5494C8.97146 14.6605 8.96473 14.6898 8.95127 14.7485C8.69631 15.8599 7.47197 16.9999 6.00004 16.9999Z" stroke="black" stroke-opacity="0.87" stroke-width="1.5" stroke-linecap="round" stroke-linejoin="round"/>
</svg>
