<svg width="24" height="24" viewBox="0 0 24 24" fill="none" xmlns="http://www.w3.org/2000/svg">
<g id="square-user-chart">
<path id="Icon" d="M10 16V11H7V16H10ZM10 16H13V8H10V16ZM11 20H7.2C6.0799 20 5.51984 20 5.09202 19.782C4.71569 19.5903 4.40973 19.2843 4.21799 18.908C4 18.4802 4 17.9201 4 16.8V7.2C4 6.0799 4 5.51984 4.21799 5.09202C4.40973 4.71569 4.71569 4.40973 5.09202 4.21799C5.51984 4 6.0799 4 7.2 4H16.8C17.9201 4 18.4802 4 18.908 4.21799C19.2843 4.40973 19.5903 4.71569 19.782 5.09202C20 5.51984 20 6.0799 20 7.2V9.1M19 13.5C19 14.3284 18.3284 15 17.5 15C16.6716 15 16 14.3284 16 13.5C16 12.6716 16.6716 12 17.5 12C18.3284 12 19 12.6716 19 13.5ZM18.5585 18H16.4415C15.5807 18 14.8164 18.5509 14.5442 19.3675L14 21H21L20.4558 19.3675C20.1836 18.5509 19.4193 18 18.5585 18Z" stroke="black" stroke-width="1.5" stroke-linecap="round" stroke-linejoin="round"/>
</g>
</svg>
