<svg width="19" height="18" viewBox="0 0 19 18" fill="none" xmlns="http://www.w3.org/2000/svg">
<g id="filled/navigation/apps">
<g clip-path="url(#clip0_5205_21654)">
<path id="Vector" d="M3.3335 6H6.3335V3H3.3335V6ZM7.8335 15H10.8335V12H7.8335V15ZM3.3335 15H6.3335V12H3.3335V15ZM3.3335 10.5H6.3335V7.5H3.3335L3.3335 10.5ZM7.8335 10.5H10.8335V7.5H7.8335V10.5ZM12.3335 3V6H15.3335V3H12.3335ZM7.8335 6H10.8335V3L7.8335 3V6ZM12.3335 10.5H15.3335V7.5H12.3335V10.5ZM12.3335 15H15.3335V12H12.3335V15Z" fill="black" fill-opacity="0.54"/>
</g>
</g>
<defs>
<clipPath id="clip0_5205_21654">
<rect x="0.333496" width="18" height="18" rx="9" fill="white"/>
</clipPath>
</defs>
</svg>
