<svg width="25" height="24" viewBox="0 0 25 24" fill="none" xmlns="http://www.w3.org/2000/svg">
<path d="M7.5 10H6.7C5.5799 10 5.01984 10 4.59202 10.218C4.21569 10.4097 3.90973 10.7157 3.71799 11.092C3.5 11.5198 3.5 12.0799 3.5 13.2V16.8C3.5 17.9201 3.5 18.4802 3.71799 18.908C3.90973 19.2843 4.21569 19.5903 4.59202 19.782C5.01984 20 5.5799 20 6.7 20H18.3C19.4201 20 19.9802 20 20.408 19.782C20.7843 19.5903 21.0903 19.2843 21.282 18.908C21.5 18.4802 21.5 17.9201 21.5 16.8V13.2C21.5 12.0799 21.5 11.5198 21.282 11.092C21.0903 10.7157 20.7843 10.4097 20.408 10.218C19.9802 10 19.4201 10 18.3 10H17.5M12.5 4V16M12.5 4L9.5 7M12.5 4L15.5 7" stroke="black" stroke-width="1.5" stroke-linecap="round" stroke-linejoin="round"/>
</svg>
