<svg width="25" height="24" viewBox="0 0 25 24" fill="none" xmlns="http://www.w3.org/2000/svg">
<g id="coins-alt">
<path id="Icon" d="M14.1431 10.5C14.1431 11.8807 11.9045 13 9.14307 13C6.38164 13 4.14307 11.8807 4.14307 10.5M14.1431 10.5C14.1431 9.11929 11.9045 8 9.14307 8C6.38164 8 4.14307 9.11929 4.14307 10.5M14.1431 10.5V14.5M4.14307 10.5V14.5M20.1431 5.5C20.1431 4.11929 17.9045 3 15.1431 3C13.164 3 11.4534 3.57493 10.6431 4.40897M20.1431 5.5C20.1431 6.42535 19.1376 7.23328 17.6431 7.66554M20.1431 5.5V14C20.1431 14.7403 19.1376 15.3866 17.6431 15.7324M20.1431 10C20.1431 10.7567 19.0925 11.4152 17.543 11.755M14.1431 14.5C14.1431 15.8807 11.9045 17 9.14307 17C6.38164 17 4.14307 15.8807 4.14307 14.5M14.1431 14.5V18.5C14.1431 19.8807 11.9045 21 9.14307 21C6.38164 21 4.14307 19.8807 4.14307 18.5V14.5" stroke="black" stroke-opacity="0.54" stroke-width="1.5" stroke-linecap="round" stroke-linejoin="round"/>
</g>
</svg>
