<svg width="24" height="24" viewBox="0 0 24 24" fill="none" xmlns="http://www.w3.org/2000/svg">
<g id="file-4">
<path id="Icon" d="M10 5V8.03077C10 8.72006 10 9.06471 9.87544 9.32799C9.76587 9.55957 9.59103 9.74786 9.37599 9.86585C9.13152 10 8.81149 10 8.17143 10H3.82857C3.18851 10 2.86848 10 2.62401 9.86585C2.40897 9.74786 2.23413 9.55957 2.12456 9.32799C2 9.06471 2 8.72006 2 8.03077V5" stroke="black" stroke-width="2" stroke-linecap="round" stroke-linejoin="round"/>
<path id="Icon_2" d="M22 5V8.03077C22 8.72006 22 9.06471 21.8754 9.32799C21.7659 9.55957 21.591 9.74786 21.376 9.86585C21.1315 10 20.8115 10 20.1714 10H15.8286C15.1885 10 14.8685 10 14.624 9.86585C14.409 9.74786 14.2341 9.55957 14.1246 9.32799C14 9.06471 14 8.72006 14 8.03077V5" stroke="black" stroke-width="2" stroke-linecap="round" stroke-linejoin="round"/>
<path id="Icon_3" d="M2 19L2 15.9692C2 15.2799 2 14.9353 2.12456 14.672C2.23413 14.4404 2.40897 14.2521 2.62401 14.1341C2.86848 14 3.18851 14 3.82857 14L8.17143 14C8.81149 14 9.13152 14 9.37599 14.1341C9.59103 14.2521 9.76587 14.4404 9.87544 14.672C10 14.9353 10 15.2799 10 15.9692L10 19" stroke="black" stroke-width="2" stroke-linecap="round" stroke-linejoin="round"/>
<path id="Icon_4" d="M14 19L14 15.9692C14 15.2799 14 14.9353 14.1246 14.672C14.2341 14.4404 14.409 14.2521 14.624 14.1341C14.8685 14 15.1885 14 15.8286 14L20.1714 14C20.8115 14 21.1315 14 21.376 14.1341C21.591 14.2521 21.7659 14.4404 21.8754 14.672C22 14.9353 22 15.2799 22 15.9692L22 19" stroke="black" stroke-width="2" stroke-linecap="round" stroke-linejoin="round"/>
</g>
</svg>
