<svg width="21" height="20" viewBox="0 0 21 20" fill="none" xmlns="http://www.w3.org/2000/svg">
<g id="files">
<path id="Icon" d="M7.83333 5.83333H7.16667C6.23325 5.83333 5.76654 5.83333 5.41002 6.01499C5.09641 6.17478 4.84144 6.42975 4.68166 6.74335C4.5 7.09987 4.5 7.56658 4.5 8.5V14.8333C4.5 15.7668 4.5 16.2335 4.68166 16.59C4.84144 16.9036 5.09641 17.1586 5.41002 17.3183C5.76654 17.5 6.23325 17.5 7.16667 17.5H10.1667C11.1001 17.5 11.5668 17.5 11.9233 17.3183C12.2369 17.1586 12.4919 16.9036 12.6517 16.59C12.8333 16.2335 12.8333 15.7668 12.8333 14.8333V14.1667M16.1667 6.66667V11.5C16.1667 12.4334 16.1667 12.9001 15.985 13.2567C15.8252 13.5703 15.5703 13.8252 15.2567 13.985C14.9001 14.1667 14.4334 14.1667 13.5 14.1667H10.5C9.56658 14.1667 9.09987 14.1667 8.74335 13.985C8.42975 13.8252 8.17478 13.5703 8.01499 13.2567C7.83333 12.9001 7.83333 12.4334 7.83333 11.5V5.16667C7.83333 4.23325 7.83333 3.76654 8.01499 3.41002C8.17478 3.09641 8.42975 2.84144 8.74335 2.68166C9.09987 2.5 9.56658 2.5 10.5 2.5H12M16.1667 6.66667L12 2.5M16.1667 6.66667H13.3333C12.8666 6.66667 12.6333 6.66667 12.455 6.57584C12.2982 6.49594 12.1707 6.36846 12.0908 6.21166C12 6.0334 12 5.80004 12 5.33333V2.5" stroke="white" stroke-width="1.5" stroke-linecap="round" stroke-linejoin="round"/>
</g>
</svg>
