<svg width="24" height="24" viewBox="0 0 24 24" fill="none" xmlns="http://www.w3.org/2000/svg">
<g id="file-2">
<path id="Icon" d="M19 3V6.3C19 7.42011 19 7.98016 18.782 8.40798C18.5903 8.78431 18.2843 9.09027 17.908 9.28201C17.4802 9.5 16.9201 9.5 15.8 9.5H8.2C7.07989 9.5 6.51984 9.5 6.09202 9.28201C5.71569 9.09027 5.40973 8.78431 5.21799 8.40798C5 7.98016 5 7.42011 5 6.3V3" stroke="black" stroke-width="2" stroke-linecap="round" stroke-linejoin="round"/>
<path id="Icon_2" d="M5 21L5 17.7C5 16.5799 5 16.0198 5.21799 15.592C5.40973 15.2157 5.7157 14.9097 6.09202 14.718C6.51984 14.5 7.0799 14.5 8.2 14.5L15.8 14.5C16.9201 14.5 17.4802 14.5 17.908 14.718C18.2843 14.9097 18.5903 15.2157 18.782 15.592C19 16.0198 19 16.5799 19 17.7L19 21" stroke="black" stroke-width="2" stroke-linecap="round" stroke-linejoin="round"/>
</g>
</svg>
