<svg width="25" height="25" viewBox="0 0 25 25" fill="none" xmlns="http://www.w3.org/2000/svg">
<g id="mail-arrow-right">
<path id="Icon" d="M21.5 12.5V8.7C21.5 7.5799 21.5 7.01984 21.282 6.59202C21.0903 6.21569 20.7843 5.90973 20.408 5.71799C19.9802 5.5 19.4201 5.5 18.3 5.5H6.7C5.5799 5.5 5.01984 5.5 4.59202 5.71799C4.21569 5.90973 3.90973 6.21569 3.71799 6.59202C3.5 7.01984 3.5 7.5799 3.5 8.7V16.3C3.5 17.4201 3.5 17.9802 3.71799 18.408C3.90973 18.7843 4.21569 19.0903 4.59202 19.282C5.01984 19.5 5.5799 19.5 6.7 19.5H12.5M21.1067 8.76229L16.0499 12.1335C14.7669 12.9888 14.1254 13.4165 13.432 13.5827C12.8192 13.7295 12.1804 13.7295 11.5677 13.5827C10.8743 13.4165 10.2328 12.9888 8.94975 12.1335L3.64746 8.59863M16.5 18.5H22.5M22.5 18.5L20.5 16.5M22.5 18.5L20.5 20.5" stroke="black" stroke-opacity="0.87" stroke-width="1.5" stroke-linecap="round" stroke-linejoin="round"/>
</g>
</svg>
