<svg width="25" height="25" viewBox="0 0 25 25" fill="none" xmlns="http://www.w3.org/2000/svg">
<g id="pen-square">
<path id="Icon" d="M11.5 4.4997H7.7C6.5799 4.4997 6.01984 4.4997 5.59202 4.71768C5.21569 4.90943 4.90973 5.21539 4.71799 5.59172C4.5 6.01954 4.5 6.57959 4.5 7.6997V17.2997C4.5 18.4198 4.5 18.9799 4.71799 19.4077C4.90973 19.784 5.21569 20.09 5.59202 20.2817C6.01984 20.4997 6.5799 20.4997 7.7 20.4997H17.3C18.4201 20.4997 18.9802 20.4997 19.408 20.2817C19.7843 20.09 20.0903 19.784 20.282 19.4077C20.5 18.9799 20.5 18.4198 20.5 17.2997V12.9997M16 5.9997L18.8284 8.82812M11.2627 10.737L17.911 4.08872C18.692 3.30767 19.9584 3.30767 20.7394 4.08872C21.5205 4.86976 21.5205 6.13609 20.7394 6.91714L13.8774 13.7791C13.1158 14.5408 12.735 14.9216 12.3012 15.2244C11.9162 15.4932 11.5009 15.7159 11.064 15.8879C10.5717 16.0817 10.0438 16.1882 8.98793 16.4012L8.5 16.4997L8.54745 16.1675C8.71536 14.9922 8.79932 14.4045 8.99029 13.8558C9.15975 13.3689 9.39125 12.9059 9.67906 12.4783C10.0034 11.9963 10.4232 11.5765 11.2627 10.737Z" stroke="black" stroke-opacity="0.87" stroke-width="1.5" stroke-linecap="round" stroke-linejoin="round"/>
</g>
</svg>
