<svg width="23" height="22" viewBox="0 0 23 22" fill="none" xmlns="http://www.w3.org/2000/svg">
<g id="vuesax/linear/pin">
<g id="vuesax/linear/language-square">
<g id="language-square">
<path id="Vector 14" d="M9.23785 13.0763L12.2431 16.0815C12.2431 16.0815 13.0857 15.0887 13.3037 14.3137C13.528 13.5162 13.3037 12.1924 13.3037 12.1924C13.3037 12.1924 15.425 10.0711 16.8392 8.65685C17.2759 8.22023 18.2535 7.94975 18.2535 7.94975L14.3644 4.06066C14.3644 4.06066 14.0939 5.03825 13.6573 5.47487C12.2431 6.88909 10.1217 9.01041 10.1217 9.01041C10.1217 9.01041 8.7979 8.78611 8.00041 9.01041C7.22539 9.22838 6.23264 10.0711 6.23264 10.0711L9.23785 13.0763ZM9.23785 13.0763L6.35102 15.9631" stroke="white" stroke-width="1.5" stroke-linecap="round" stroke-linejoin="round"/>
</g>
</g>
</g>
</svg>
