<svg width="25" height="24" viewBox="0 0 25 24" fill="none" xmlns="http://www.w3.org/2000/svg">
<path d="M9.49258 10.87C9.39258 10.86 9.27258 10.86 9.16258 10.87C6.78258 10.79 4.89258 8.84 4.89258 6.44C4.89258 3.99 6.87258 2 9.33258 2C11.7826 2 13.7726 3.99 13.7726 6.44C13.7626 8.84 11.8726 10.79 9.49258 10.87Z" stroke="black" stroke-opacity="0.87" stroke-width="1.5" stroke-linecap="round" stroke-linejoin="round"/>
<path d="M16.7413 4C18.6813 4 20.2413 5.57 20.2413 7.5C20.2413 9.39 18.7413 10.93 16.8713 11C16.7913 10.99 16.7013 10.99 16.6113 11" stroke="black" stroke-opacity="0.87" stroke-width="1.5" stroke-linecap="round" stroke-linejoin="round"/>
<path d="M4.49273 14.56C2.07273 16.18 2.07273 18.82 4.49273 20.43C7.24273 22.27 11.7527 22.27 14.5027 20.43C16.9227 18.81 16.9227 16.17 14.5027 14.56C11.7627 12.73 7.25273 12.73 4.49273 14.56Z" stroke="black" stroke-opacity="0.87" stroke-width="1.5" stroke-linecap="round" stroke-linejoin="round"/>
<path d="M18.6719 20C19.3919 19.85 20.0719 19.56 20.6319 19.13C22.1919 17.96 22.1919 16.03 20.6319 14.86C20.0819 14.44 19.4119 14.16 18.7019 14" stroke="black" stroke-opacity="0.87" stroke-width="1.5" stroke-linecap="round" stroke-linejoin="round"/>
</svg>
