<svg width="25" height="24" viewBox="0 0 25 24" fill="none" xmlns="http://www.w3.org/2000/svg">
<path d="M9.49258 10.87C9.39258 10.86 9.27258 10.86 9.16258 10.87C6.78258 10.79 4.89258 8.84 4.89258 6.44C4.89258 3.99 6.87258 2 9.33258 2C11.7826 2 13.7726 3.99 13.7726 6.44C13.7626 8.84 11.8726 10.79 9.49258 10.87Z" stroke="black" stroke-opacity="0.87" stroke-width="1.5" stroke-linecap="round" stroke-linejoin="round"/>
<path d="M16.7413 4C18.6813 4 20.2413 5.57 20.2413 7.5C20.2413 9.39 18.7413 10.93 16.8713 11C16.7913 10.99 16.7013 10.99 16.6113 11" stroke="black" stroke-opacity="0.87" stroke-width="1.5" stroke-linecap="round" stroke-linejoin="round"/>
<path d="M19.8228 18H18.3328M18.3328 18H16.8428M18.3328 18V16.54M18.3328 18V19.53M15.3813 15.2959C15.0013 15.7086 14.7103 16.1981 14.5328 16.74C14.4028 17.14 14.3328 17.56 14.3328 18C14.3328 18.75 14.5428 19.46 14.9128 20.06C14.9217 20.0751 14.9307 20.0902 14.9398 20.1052M15.3813 15.2959C15.408 15.2669 15.4352 15.2383 15.4628 15.21C16.1928 14.46 17.2128 14 18.3328 14C19.5128 14 20.5828 14.51 21.3028 15.33C21.9428 16.04 22.3328 16.98 22.3328 18C22.3328 18.32 22.2928 18.63 22.2128 18.93C22.1228 19.33 21.9628 19.72 21.7528 20.06C21.2728 20.87 20.5028 21.5 19.5828 21.79C19.1928 21.93 18.7728 22 18.3328 22C17.3028 22 16.3728 21.61 15.6728 20.97C15.3861 20.7215 15.136 20.4275 14.9398 20.1052M15.3813 15.2959C15.1365 15.034 14.8436 14.7868 14.5027 14.56C11.7627 12.73 7.25273 12.73 4.49273 14.56C2.07273 16.18 2.07273 18.82 4.49273 20.43C7.24273 22.27 11.7527 22.27 14.5027 20.43C14.6584 20.3258 14.8041 20.2173 14.9398 20.1052" stroke="black" stroke-opacity="0.87" stroke-width="1.5" stroke-linecap="round" stroke-linejoin="round"/>
</svg>
