<svg width="9" height="14" viewBox="0 0 9 14" fill="none" xmlns="http://www.w3.org/2000/svg">
<path d="M1.5 2.9313V11.0686C1.5 11.6744 1.5 11.9773 1.6198 12.1175C1.72374 12.2393 1.87967 12.3038 2.03923 12.2913C2.22312 12.2768 2.43731 12.0626 2.86569 11.6342L6.93431 7.56561C7.13232 7.3676 7.23133 7.2686 7.26842 7.15444C7.30105 7.05401 7.30105 6.94584 7.26842 6.84542C7.23133 6.73125 7.13232 6.63225 6.93431 6.43424L2.86569 2.36561C2.43731 1.93724 2.22312 1.72305 2.03923 1.70858C1.87967 1.69602 1.72374 1.76061 1.6198 1.88231C1.5 2.02257 1.5 2.32548 1.5 2.9313Z" fill="black" stroke="black" stroke-width="1.5" stroke-linecap="round" stroke-linejoin="round"/>
</svg>
