<svg width="23" height="22" viewBox="0 0 23 22" fill="none" xmlns="http://www.w3.org/2000/svg">
<g id="vuesax/linear/save-2">
<g id="vuesax/linear/save-2_2">
<g id="save-2">
<g id="Vector">
<path d="M15.0003 8.24039V18.6537C15.0003 19.9829 14.047 20.5421 12.8828 19.9004L9.28033 17.8929C8.89533 17.6821 8.27198 17.6821 7.88698 17.8929L4.28449 19.9004C3.12032 20.5421 2.16699 19.9829 2.16699 18.6537V8.24039C2.16699 6.67289 3.45031 5.38957 5.01781 5.38957H12.1495C13.717 5.38957 15.0003 6.67289 15.0003 8.24039Z" stroke="black" stroke-opacity="0.54" stroke-width="1.5" stroke-linecap="round" stroke-linejoin="round"/>
<path d="M20.5003 4.68383V15.0972C20.5003 16.4263 19.547 16.9855 18.3828 16.3438L15.0003 14.4555V8.2405C15.0003 6.673 13.717 5.38968 12.1495 5.38968H7.66699V4.68383C7.66699 3.11633 8.95031 1.83301 10.5178 1.83301H17.6495C19.217 1.83301 20.5003 3.11633 20.5003 4.68383Z" stroke="black" stroke-opacity="0.54" stroke-width="1.5" stroke-linecap="round" stroke-linejoin="round"/>
</g>
</g>
</g>
</g>
</svg>
