<svg width="24" height="24" viewBox="0 0 24 24" fill="none" xmlns="http://www.w3.org/2000/svg">
<path d="M3.99923 21.5H19.9992M11.9992 21.5V7.85897M11.9992 7.85897C13.1038 7.85897 13.9992 6.9865 13.9992 5.91026M11.9992 7.85897C10.8947 7.85897 9.99923 6.9865 9.99923 5.91026C9.99923 4.83401 10.8947 3.96154 11.9992 3.96154C13.1038 3.96154 13.9992 4.83401 13.9992 5.91026M13.9992 5.91026H19.9992M8.98385 2.5L5.99923 6.88462L3.06939 4.9359M5.99923 17.6026C7.51177 17.6026 8.76287 16.7826 8.96934 15.4115C8.98242 15.3246 8.98897 15.2812 8.98385 15.1848C8.98031 15.1183 8.95717 14.9967 8.93599 14.9333C8.90531 14.8416 8.86812 14.7772 8.79375 14.6483L5.99923 9.80769L3.2047 14.6483C3.13575 14.7678 3.10128 14.8275 3.06939 14.9312C3.04977 14.9951 3.02706 15.1482 3.02735 15.2148C3.02781 15.3231 3.03453 15.3517 3.04799 15.4089C3.30295 16.4918 4.5273 17.6026 5.99923 17.6026ZM17.9992 17.6026C19.5118 17.6026 20.7629 16.7826 20.9693 15.4115C20.9824 15.3246 20.989 15.2812 20.9838 15.1848C20.9803 15.1183 20.9572 14.9967 20.936 14.9333C20.9053 14.8416 20.8681 14.7772 20.7937 14.6483L17.9992 9.80769L15.2047 14.6483C15.1358 14.7678 15.1013 14.8275 15.0694 14.9312C15.0498 14.9951 15.0271 15.1482 15.0273 15.2148C15.0278 15.3231 15.0345 15.3517 15.048 15.4089C15.303 16.4918 16.5273 17.6026 17.9992 17.6026Z" stroke="black" stroke-opacity="0.87" stroke-width="1.5" stroke-linecap="round" stroke-linejoin="round"/>
</svg>
