<svg width="18" height="18" viewBox="0 0 18 18" fill="none" xmlns="http://www.w3.org/2000/svg">
<g id="tags">
<path id="Icon" d="M6.375 2.25H8.63383C9.18416 2.25 9.45932 2.25 9.71827 2.31217C9.94785 2.36729 10.1673 2.4582 10.3686 2.58156C10.5957 2.7207 10.7903 2.91527 11.1794 3.30441L15.375 7.5M5.66235 7.53735H5.66985M7.13383 4.5H6.225C4.96488 4.5 4.33482 4.5 3.85352 4.74524C3.43016 4.96095 3.08595 5.30516 2.87024 5.72852C2.625 6.20982 2.625 6.83988 2.625 8.1V9.00883C2.625 9.55916 2.625 9.83432 2.68717 10.0933C2.74229 10.3229 2.8332 10.5423 2.95656 10.7436C3.0957 10.9707 3.29027 11.1653 3.67942 11.5544L6.07942 13.9544C6.97045 14.8455 7.41597 15.291 7.92971 15.4579C8.38161 15.6047 8.86839 15.6047 9.32029 15.4579C9.83403 15.291 10.2795 14.8455 11.1706 13.9544L12.0794 13.0456C12.9705 12.1545 13.416 11.709 13.5829 11.1953C13.7297 10.7434 13.7297 10.2566 13.5829 9.80471C13.416 9.29097 12.9705 8.84545 12.0794 7.95441L9.67941 5.55441C9.29027 5.16527 9.0957 4.9707 8.86864 4.83156C8.66733 4.7082 8.44785 4.61729 8.21827 4.56217C7.95932 4.5 7.68416 4.5 7.13383 4.5ZM6.03735 7.53735C6.03735 7.74446 5.86946 7.91235 5.66235 7.91235C5.45525 7.91235 5.28735 7.74446 5.28735 7.53735C5.28735 7.33025 5.45525 7.16235 5.66235 7.16235C5.86946 7.16235 6.03735 7.33025 6.03735 7.53735Z" stroke="black" stroke-opacity="0.87" stroke-width="1.5" stroke-linecap="round" stroke-linejoin="round"/>
</g>
</svg>
